<svg width="419" height="48" viewBox="0 0 419 48" fill="none" xmlns="http://www.w3.org/2000/svg">
<path d="M337.325 36.2373C340.869 36.2373 343.672 35.154 345.732 32.9874C347.793 30.7806 348.823 27.8718 348.823 24.2608V23.7793C348.823 20.1683 347.793 17.2794 345.732 15.1128C343.672 12.9061 340.869 11.8027 337.325 11.8027C333.822 11.8027 331.019 12.9061 328.917 15.1128C326.857 17.2794 325.826 20.1683 325.826 23.7793V24.2608C325.826 27.8718 326.857 30.7806 328.917 32.9874C331.019 35.154 333.822 36.2373 337.325 36.2373Z" fill="#FF0000"/>
<path d="M370.821 34.7999C374.365 34.7999 377.168 33.7166 379.228 31.55C381.289 29.3433 382.319 26.4344 382.319 22.8234V22.3419C382.319 18.7309 381.289 15.8421 379.228 13.6755C377.168 11.4687 374.365 10.3654 370.821 10.3654C367.318 10.3654 364.515 11.4687 362.413 13.6755C360.353 15.8421 359.322 18.7309 359.322 22.3419V22.8234C359.322 26.4344 360.353 29.3433 362.413 31.55C364.515 33.7166 367.318 34.7999 370.821 34.7999Z" fill="#00FF29"/>
<path d="M405.319 34.7999C408.863 34.7999 411.666 33.7166 413.727 31.55C415.787 29.3433 416.818 26.4344 416.818 22.8234V22.3419C416.818 18.7309 415.787 15.8421 413.727 13.6755C411.666 11.4687 408.863 10.3654 405.319 10.3654C401.816 10.3654 399.013 11.4687 396.911 13.6755C394.851 15.8421 393.82 18.7309 393.82 22.3419V22.8234C393.82 26.4344 394.851 29.3433 396.911 31.55C399.013 33.7166 401.816 34.7999 405.319 34.7999Z" fill="#0038FF"/>
<path d="M337.401 37C334.713 37 332.353 36.4371 330.319 35.3113C328.322 34.1492 326.76 32.5512 325.634 30.5175C324.545 28.4475 324 26.0506 324 23.3268V22.6732C324 19.9494 324.545 17.5707 325.634 15.537C326.76 13.4669 328.322 11.869 330.319 10.7432C332.353 9.58106 334.713 9 337.401 9C340.088 9 342.431 9.58106 344.428 10.7432C346.462 11.869 348.023 13.4669 349.113 15.537C350.239 17.5707 350.802 19.9494 350.802 22.6732V23.3268C350.802 26.0506 350.239 28.4475 349.113 30.5175C348.023 32.5512 346.462 34.1492 344.428 35.3113C342.431 36.4371 340.088 37 337.401 37ZM337.401 34.0584C340.524 34.0584 342.994 33.0778 344.809 31.1167C346.625 29.1193 347.533 26.4864 347.533 23.2179V22.7821C347.533 19.5136 346.625 16.8988 344.809 14.9377C342.994 12.9403 340.524 11.9416 337.401 11.9416C334.314 11.9416 331.844 12.9403 329.992 14.9377C328.176 16.8988 327.268 19.5136 327.268 22.7821V23.2179C327.268 26.4864 328.176 29.1193 329.992 31.1167C331.844 33.0778 334.314 34.0584 337.401 34.0584Z" fill="white"/>
<path d="M371.181 37C368.494 37 366.133 36.4371 364.1 35.3113C362.102 34.1492 360.541 32.5512 359.415 30.5175C358.325 28.4475 357.781 26.0506 357.781 23.3268V22.6732C357.781 19.9494 358.325 17.5707 359.415 15.537C360.541 13.4669 362.102 11.869 364.1 10.7432C366.133 9.58106 368.494 9 371.181 9C373.869 9 376.211 9.58106 378.209 10.7432C380.242 11.869 381.804 13.4669 382.894 15.537C384.019 17.5707 384.582 19.9494 384.582 22.6732V23.3268C384.582 26.0506 384.019 28.4475 382.894 30.5175C381.804 32.5512 380.242 34.1492 378.209 35.3113C376.211 36.4371 373.869 37 371.181 37ZM371.181 34.0584C374.305 34.0584 376.774 33.0778 378.59 31.1167C380.406 29.1193 381.314 26.4864 381.314 23.2179V22.7821C381.314 19.5136 380.406 16.8988 378.59 14.9377C376.774 12.9403 374.305 11.9416 371.181 11.9416C368.095 11.9416 365.625 12.9403 363.773 14.9377C361.957 16.8988 361.049 19.5136 361.049 22.7821V23.2179C361.049 26.4864 361.957 29.1193 363.773 31.1167C365.625 33.0778 368.095 34.0584 371.181 34.0584Z" fill="white"/>
<path d="M404.962 37C402.275 37 399.914 36.4371 397.88 35.3113C395.883 34.1492 394.321 32.5512 393.196 30.5175C392.106 28.4475 391.561 26.0506 391.561 23.3268V22.6732C391.561 19.9494 392.106 17.5707 393.196 15.537C394.321 13.4669 395.883 11.869 397.88 10.7432C399.914 9.58106 402.275 9 404.962 9C407.65 9 409.992 9.58106 411.989 10.7432C414.023 11.869 415.585 13.4669 416.674 15.537C417.8 17.5707 418.363 19.9494 418.363 22.6732V23.3268C418.363 26.0506 417.8 28.4475 416.674 30.5175C415.585 32.5512 414.023 34.1492 411.989 35.3113C409.992 36.4371 407.65 37 404.962 37ZM404.962 34.0584C408.085 34.0584 410.555 33.0778 412.371 31.1167C414.187 29.1193 415.094 26.4864 415.094 23.2179V22.7821C415.094 19.5136 414.187 16.8988 412.371 14.9377C410.555 12.9403 408.085 11.9416 404.962 11.9416C401.875 11.9416 399.406 12.9403 397.554 14.9377C395.738 16.8988 394.83 19.5136 394.83 22.7821V23.2179C394.83 26.4864 395.738 29.1193 397.554 31.1167C399.406 33.0778 401.875 34.0584 404.962 34.0584Z" fill="white"/>
<path d="M3.032 37V10.47H13.1892C14.781 10.47 16.1959 10.7858 17.434 11.4175C18.6973 12.0239 19.6954 12.8956 20.4281 14.0326C21.1608 15.1696 21.5272 16.5466 21.5272 18.1637V18.6564C21.5272 20.2482 21.1482 21.6252 20.3902 22.7875C19.6575 23.9245 18.6594 24.7962 17.3961 25.4026C16.1328 26.009 14.7305 26.3122 13.1892 26.3122H6.2156V37H3.032ZM6.2156 23.4318H12.8481C14.541 23.4318 15.8801 23.0149 16.8655 22.1811C17.8509 21.322 18.3436 20.1219 18.3436 18.5806V18.2016C18.3436 16.6603 17.8509 15.4728 16.8655 14.639C15.9054 13.7799 14.5662 13.3504 12.8481 13.3504H6.2156V23.4318ZM25.9079 37V18.4669H28.8262V20.7409H29.3568C29.6853 19.9324 30.1906 19.3386 30.8728 18.9596C31.555 18.5806 32.452 18.3911 33.5637 18.3911H35.7619V21.1199H33.3742C32.0351 21.1199 30.9486 21.4989 30.1148 22.2569C29.3063 22.9896 28.902 24.1393 28.902 25.7058V37H25.9079ZM48.0936 37.5306C46.2239 37.5306 44.5689 37.139 43.1287 36.3557C41.7138 35.5724 40.6021 34.4733 39.7935 33.0584C39.0103 31.6182 38.6186 29.9253 38.6186 27.9798V27.4871C38.6186 25.5668 39.0103 23.8866 39.7935 22.4464C40.6021 21.0062 41.7138 19.8945 43.1287 19.1112C44.5689 18.3279 46.2239 17.9363 48.0936 17.9363C49.9634 17.9363 51.6057 18.3279 53.0206 19.1112C54.4608 19.8945 55.5726 21.0062 56.3558 22.4464C57.1644 23.8866 57.5686 25.5668 57.5686 27.4871V27.9798C57.5686 29.9253 57.1644 31.6182 56.3558 33.0584C55.5726 34.4733 54.4608 35.5724 53.0206 36.3557C51.6057 37.139 49.9634 37.5306 48.0936 37.5306ZM48.0936 34.8397C50.0644 34.8397 51.631 34.2207 52.7932 32.9826C53.9808 31.7193 54.5745 30.0264 54.5745 27.904V27.5629C54.5745 25.4405 53.9808 23.7603 52.7932 22.5222C51.631 21.2589 50.0644 20.6272 48.0936 20.6272C46.1481 20.6272 44.5816 21.2589 43.394 22.5222C42.2065 23.7603 41.6127 25.4405 41.6127 27.5629V27.904C41.6127 30.0264 42.2065 31.7193 43.394 32.9826C44.5816 34.2207 46.1481 34.8397 48.0936 34.8397ZM71.4841 37.5306C69.6902 37.5306 68.0731 37.1516 66.6329 36.3936C65.218 35.6103 64.0936 34.4986 63.2598 33.0584C62.4513 31.6182 62.047 29.9127 62.047 27.9419V27.525C62.047 25.5289 62.4513 23.8234 63.2598 22.4085C64.0936 20.9683 65.218 19.8692 66.6329 19.1112C68.0731 18.3279 69.6902 17.9363 71.4841 17.9363C73.2528 17.9363 74.7562 18.2648 75.9942 18.9217C77.2576 19.5786 78.243 20.4503 78.9504 21.5368C79.6832 22.6233 80.1506 23.7855 80.3527 25.0236L77.4344 25.63C77.3081 24.7204 77.0049 23.8866 76.5248 23.1286C76.07 22.3706 75.4257 21.7642 74.5919 21.3094C73.7581 20.8546 72.7348 20.6272 71.522 20.6272C70.284 20.6272 69.1722 20.9051 68.1868 21.461C67.2267 22.0169 66.4561 22.8128 65.8749 23.8487C65.3191 24.8846 65.0411 26.1227 65.0411 27.5629V27.904C65.0411 29.3442 65.3191 30.5823 65.8749 31.6182C66.4561 32.6541 67.2267 33.45 68.1868 34.0059C69.1722 34.5618 70.284 34.8397 71.522 34.8397C73.3665 34.8397 74.7688 34.3596 75.7289 33.3995C76.7143 32.4394 77.3207 31.2518 77.5481 29.8369L80.5043 30.4812C80.2264 31.694 79.7211 32.8436 78.9883 33.9301C78.2556 35.0166 77.2576 35.8883 75.9942 36.5452C74.7562 37.2021 73.2528 37.5306 71.4841 37.5306ZM94.0974 37.5306C92.2277 37.5306 90.5853 37.139 89.1704 36.3557C87.7555 35.5472 86.6564 34.4228 85.8731 32.9826C85.0898 31.5424 84.6982 29.8748 84.6982 27.9798V27.525C84.6982 25.6047 85.0898 23.9245 85.8731 22.4843C86.6564 21.0441 87.7428 19.9324 89.1325 19.1491C90.5222 18.3406 92.114 17.9363 93.9079 17.9363C95.6513 17.9363 97.1926 18.3153 98.5317 19.0733C99.8708 19.806 100.919 20.8672 101.677 22.2569C102.435 23.6466 102.814 25.2763 102.814 27.146V28.5104H87.6923C87.7681 30.5065 88.4124 32.073 89.6252 33.21C90.838 34.3217 92.354 34.8776 94.1732 34.8776C95.765 34.8776 96.9904 34.5112 97.8495 33.7785C98.7086 33.0458 99.3655 32.1741 99.8203 31.1634L102.398 32.4141C102.019 33.1974 101.488 33.9806 100.806 34.7639C100.149 35.5472 99.2771 36.2041 98.1906 36.7347C97.1294 37.2653 95.765 37.5306 94.0974 37.5306ZM87.7302 26.0469H99.7824C99.6813 24.3288 99.0876 22.9896 98.0011 22.0295C96.9399 21.0694 95.5755 20.5893 93.9079 20.5893C92.215 20.5893 90.8254 21.0694 89.7389 22.0295C88.6524 22.9896 87.9829 24.3288 87.7302 26.0469ZM115.503 37.5306C113.204 37.5306 111.258 37 109.667 35.9388C108.1 34.8776 107.153 33.1974 106.824 30.8981L109.667 30.2538C109.869 31.4666 110.248 32.4267 110.804 33.1342C111.359 33.8164 112.042 34.3091 112.85 34.6123C113.684 34.8902 114.568 35.0292 115.503 35.0292C116.893 35.0292 117.992 34.7513 118.801 34.1954C119.609 33.6395 120.013 32.8942 120.013 31.9593C120.013 30.9992 119.622 30.3296 118.838 29.9506C118.08 29.5463 117.032 29.2179 115.693 28.9652L114.139 28.6999C112.951 28.4978 111.865 28.1819 110.879 27.7524C109.894 27.3229 109.111 26.7417 108.53 26.009C107.948 25.2763 107.658 24.354 107.658 23.2423C107.658 21.5747 108.302 20.2735 109.591 19.3386C110.879 18.4037 112.585 17.9363 114.707 17.9363C116.804 17.9363 118.497 18.4164 119.786 19.3765C121.1 20.3114 121.946 21.6379 122.325 23.356L119.521 24.0761C119.293 22.737 118.75 21.8021 117.891 21.2715C117.032 20.7156 115.971 20.4377 114.707 20.4377C113.444 20.4377 112.446 20.6777 111.713 21.1578C110.98 21.6126 110.614 22.2948 110.614 23.2044C110.614 24.0887 110.955 24.7457 111.637 25.1752C112.345 25.5795 113.28 25.8827 114.442 26.0848L115.996 26.3501C117.31 26.5775 118.485 26.8933 119.521 27.2976C120.582 27.6766 121.416 28.2325 122.022 28.9652C122.654 29.6979 122.97 30.6581 122.97 31.8456C122.97 33.6648 122.287 35.0671 120.923 36.0525C119.584 37.0379 117.777 37.5306 115.503 37.5306ZM135.49 37.5306C133.19 37.5306 131.245 37 129.653 35.9388C128.086 34.8776 127.139 33.1974 126.81 30.8981L129.653 30.2538C129.855 31.4666 130.234 32.4267 130.79 33.1342C131.346 33.8164 132.028 34.3091 132.837 34.6123C133.67 34.8902 134.555 35.0292 135.49 35.0292C136.879 35.0292 137.978 34.7513 138.787 34.1954C139.595 33.6395 140 32.8942 140 31.9593C140 30.9992 139.608 30.3296 138.825 29.9506C138.067 29.5463 137.018 29.2179 135.679 28.9652L134.125 28.6999C132.938 28.4978 131.851 28.1819 130.866 27.7524C129.88 27.3229 129.097 26.7417 128.516 26.009C127.935 25.2763 127.644 24.354 127.644 23.2423C127.644 21.5747 128.289 20.2735 129.577 19.3386C130.866 18.4037 132.571 17.9363 134.694 17.9363C136.791 17.9363 138.484 18.4164 139.772 19.3765C141.086 20.3114 141.933 21.6379 142.312 23.356L139.507 24.0761C139.28 22.737 138.736 21.8021 137.877 21.2715C137.018 20.7156 135.957 20.4377 134.694 20.4377C133.43 20.4377 132.432 20.6777 131.7 21.1578C130.967 21.6126 130.6 22.2948 130.6 23.2044C130.6 24.0887 130.942 24.7457 131.624 25.1752C132.331 25.5795 133.266 25.8827 134.428 26.0848L135.982 26.3501C137.296 26.5775 138.471 26.8933 139.507 27.2976C140.568 27.6766 141.402 28.2325 142.008 28.9652C142.64 29.6979 142.956 30.6581 142.956 31.8456C142.956 33.6648 142.274 35.0671 140.909 36.0525C139.57 37.0379 137.764 37.5306 135.49 37.5306ZM148.01 37V18.4669H151.004V37H148.01ZM149.526 15.5865C148.869 15.5865 148.313 15.3717 147.858 14.9422C147.428 14.5127 147.214 13.9694 147.214 13.3125C147.214 12.6303 147.428 12.0744 147.858 11.6449C148.313 11.2154 148.869 11.0006 149.526 11.0006C150.183 11.0006 150.726 11.2154 151.155 11.6449C151.585 12.0744 151.8 12.6303 151.8 13.3125C151.8 13.9694 151.585 14.5127 151.155 14.9422C150.726 15.3717 150.183 15.5865 149.526 15.5865ZM157.3 37V18.4669H160.218V21.6126H160.748C161.153 20.7283 161.835 19.9324 162.795 19.2249C163.78 18.4922 165.221 18.1258 167.116 18.1258C168.505 18.1258 169.743 18.4164 170.83 18.9975C171.942 19.5786 172.826 20.4377 173.483 21.5747C174.14 22.7117 174.468 24.114 174.468 25.7816V37H171.474V26.009C171.474 24.1645 171.007 22.8254 170.072 21.9916C169.162 21.1578 167.924 20.7409 166.358 20.7409C164.564 20.7409 163.098 21.322 161.961 22.4843C160.849 23.6466 160.294 25.3773 160.294 27.6766V37H157.3ZM179.633 27.8282V27.2976C179.633 25.3521 180.025 23.6845 180.808 22.2948C181.591 20.9051 182.653 19.8313 183.992 19.0733C185.331 18.3153 186.796 17.9363 188.388 17.9363C190.334 17.9363 191.824 18.3153 192.86 19.0733C193.922 19.806 194.705 20.6272 195.21 21.5368H195.741V18.4669H198.583V41.3206C198.583 42.3313 198.305 43.1272 197.749 43.7083C197.194 44.2894 196.385 44.58 195.324 44.58H182.741V41.927H194.528C195.286 41.927 195.665 41.548 195.665 40.79V33.7406H195.134C194.831 34.2965 194.402 34.8397 193.846 35.3703C193.29 35.9009 192.57 36.3431 191.685 36.6968C190.801 37.0253 189.702 37.1895 188.388 37.1895C186.796 37.1895 185.331 36.8105 183.992 36.0525C182.653 35.2945 181.591 34.2207 180.808 32.831C180.025 31.4161 179.633 29.7485 179.633 27.8282ZM189.184 34.5365C191.104 34.5365 192.658 33.9301 193.846 32.7173C195.059 31.5045 195.665 29.8369 195.665 27.7145V27.4113C195.665 25.2636 195.059 23.596 193.846 22.4085C192.658 21.1957 191.104 20.5893 189.184 20.5893C187.289 20.5893 185.723 21.1957 184.484 22.4085C183.272 23.596 182.665 25.2636 182.665 27.4113V27.7145C182.665 29.8369 183.272 31.5045 184.484 32.7173C185.723 33.9301 187.289 34.5365 189.184 34.5365ZM214.335 37.5306C211.176 37.5306 208.662 36.621 206.792 34.8018C204.923 32.9573 203.988 30.2791 203.988 26.767V20.703C203.988 17.1909 204.923 14.5253 206.792 12.7061C208.662 10.8616 211.176 9.9394 214.335 9.9394C217.468 9.9394 219.868 10.8111 221.536 12.5545C223.228 14.2979 224.075 16.6856 224.075 19.7176V19.9071H220.929V19.6039C220.929 17.6078 220.386 15.9781 219.299 14.7148C218.238 13.4262 216.583 12.7819 214.335 12.7819C212.086 12.7819 210.33 13.4767 209.066 14.8664C207.803 16.2308 207.171 18.1511 207.171 20.6272V26.8428C207.171 29.3189 207.803 31.2518 209.066 32.6415C210.33 34.0059 212.086 34.6881 214.335 34.6881C216.583 34.6881 218.238 34.0564 219.299 32.7931C220.386 31.5045 220.929 29.8622 220.929 27.8661V27.2597H224.075V27.7524C224.075 30.7844 223.228 33.1721 221.536 34.9155C219.868 36.6589 217.468 37.5306 214.335 37.5306ZM237.742 37.5306C235.872 37.5306 234.217 37.139 232.777 36.3557C231.362 35.5724 230.25 34.4733 229.442 33.0584C228.658 31.6182 228.267 29.9253 228.267 27.9798V27.4871C228.267 25.5668 228.658 23.8866 229.442 22.4464C230.25 21.0062 231.362 19.8945 232.777 19.1112C234.217 18.3279 235.872 17.9363 237.742 17.9363C239.611 17.9363 241.254 18.3279 242.669 19.1112C244.109 19.8945 245.221 21.0062 246.004 22.4464C246.812 23.8866 247.217 25.5668 247.217 27.4871V27.9798C247.217 29.9253 246.812 31.6182 246.004 33.0584C245.221 34.4733 244.109 35.5724 242.669 36.3557C241.254 37.139 239.611 37.5306 237.742 37.5306ZM237.742 34.8397C239.712 34.8397 241.279 34.2207 242.441 32.9826C243.629 31.7193 244.223 30.0264 244.223 27.904V27.5629C244.223 25.4405 243.629 23.7603 242.441 22.5222C241.279 21.2589 239.712 20.6272 237.742 20.6272C235.796 20.6272 234.23 21.2589 233.042 22.5222C231.855 23.7603 231.261 25.4405 231.261 27.5629V27.904C231.261 30.0264 231.855 31.7193 233.042 32.9826C234.23 34.2207 235.796 34.8397 237.742 34.8397ZM252.605 37V10.47H255.599V37H252.605ZM270.46 37.5306C268.59 37.5306 266.935 37.139 265.495 36.3557C264.08 35.5724 262.968 34.4733 262.16 33.0584C261.377 31.6182 260.985 29.9253 260.985 27.9798V27.4871C260.985 25.5668 261.377 23.8866 262.16 22.4464C262.968 21.0062 264.08 19.8945 265.495 19.1112C266.935 18.3279 268.59 17.9363 270.46 17.9363C272.33 17.9363 273.972 18.3279 275.387 19.1112C276.827 19.8945 277.939 21.0062 278.722 22.4464C279.531 23.8866 279.935 25.5668 279.935 27.4871V27.9798C279.935 29.9253 279.531 31.6182 278.722 33.0584C277.939 34.4733 276.827 35.5724 275.387 36.3557C273.972 37.139 272.33 37.5306 270.46 37.5306ZM270.46 34.8397C272.431 34.8397 273.997 34.2207 275.16 32.9826C276.347 31.7193 276.941 30.0264 276.941 27.904V27.5629C276.941 25.4405 276.347 23.7603 275.16 22.5222C273.997 21.2589 272.431 20.6272 270.46 20.6272C268.514 20.6272 266.948 21.2589 265.76 22.5222C264.573 23.7603 263.979 25.4405 263.979 27.5629V27.904C263.979 30.0264 264.573 31.7193 265.76 32.9826C266.948 34.2207 268.514 34.8397 270.46 34.8397ZM285.323 37V18.4669H288.241V20.7409H288.772C289.1 19.9324 289.606 19.3386 290.288 18.9596C290.97 18.5806 291.867 18.3911 292.979 18.3911H295.177V21.1199H292.789C291.45 21.1199 290.364 21.4989 289.53 22.2569C288.721 22.9896 288.317 24.1393 288.317 25.7058V37H285.323ZM306.706 37.5306C304.406 37.5306 302.461 37 300.869 35.9388C299.303 34.8776 298.355 33.1974 298.027 30.8981L300.869 30.2538C301.071 31.4666 301.45 32.4267 302.006 33.1342C302.562 33.8164 303.244 34.3091 304.053 34.6123C304.887 34.8902 305.771 35.0292 306.706 35.0292C308.095 35.0292 309.195 34.7513 310.003 34.1954C310.812 33.6395 311.216 32.8942 311.216 31.9593C311.216 30.9992 310.824 30.3296 310.041 29.9506C309.283 29.5463 308.234 29.2179 306.895 28.9652L305.341 28.6999C304.154 28.4978 303.067 28.1819 302.082 27.7524C301.097 27.3229 300.313 26.7417 299.732 26.009C299.151 25.2763 298.86 24.354 298.86 23.2423C298.86 21.5747 299.505 20.2735 300.793 19.3386C302.082 18.4037 303.787 17.9363 305.91 17.9363C308.007 17.9363 309.7 18.4164 310.988 19.3765C312.302 20.3114 313.149 21.6379 313.528 23.356L310.723 24.0761C310.496 22.737 309.953 21.8021 309.093 21.2715C308.234 20.7156 307.173 20.4377 305.91 20.4377C304.647 20.4377 303.648 20.6777 302.916 21.1578C302.183 21.6126 301.817 22.2948 301.817 23.2044C301.817 24.0887 302.158 24.7457 302.84 25.1752C303.547 25.5795 304.482 25.8827 305.645 26.0848L307.198 26.3501C308.512 26.5775 309.687 26.8933 310.723 27.2976C311.784 27.6766 312.618 28.2325 313.225 28.9652C313.856 29.6979 314.172 30.6581 314.172 31.8456C314.172 33.6648 313.49 35.0671 312.125 36.0525C310.786 37.0379 308.98 37.5306 306.706 37.5306Z" fill="white"/>
</svg>
